<svg style="width:120px;height:auto;display:block;" viewBox="0 0 741 426" xmlns="http://www.w3.org/2000/svg"><path fill="#F4EFE6" d="m 393.4634,398.05413 c -1.50343,-1.09934 -1.59683,-1.70106 -0.60272,-3.8829 2.29234,-5.03115 9.24443,-4.29016 9.24443,0.98531 0,1.30765 -0.11547,2.37755 -0.2566,2.37755 -0.14113,0 -1.68521,0.40972 -3.43128,0.91049 -2.26578,0.64982 -3.68405,0.53803 -4.95383,-0.39045 z m -69.18827,-18.20645 c -4.05985,-2.00052 -14.03062,-13.00903 -16.39379,-18.10004 -0.94808,-2.04245 -1.75161,-5.73855 -1.78562,-8.21355 -0.0611,-4.44339 -1.57115,-11.57226 -4.16103,-19.64363 -0.93207,-2.9048 -2.67294,-5.16076 -5.82285,-7.54574 -5.28837,-4.00414 -6.97185,-6.91995 -6.99198,-12.11029 -0.0249,-6.41328 3.57358,-11.50409 9.47065,-13.39832 l 2.98541,-0.95895 0.16801,-11.61385 c 0.0924,-6.38762 0.70983,-13.32731 1.37206,-15.42154 3.20545,-10.13692 10.72674,-15.5555 18.58968,-13.39261 10.02246,2.75692 24.67566,14.62629 28.17769,22.82447 1.11844,2.61825 2.35398,7.80422 2.74563,11.52436 0.39165,3.72015 1.083,6.99314 1.53633,7.27331 1.91269,1.18211 2.13772,9.42535 0.40746,14.92629 -2.81233,8.94114 -2.58909,8.79984 -23.55556,14.90846 -3.07334,0.89542 -6.56084,1.62804 -7.75,1.62804 -2.54645,0 -2.64156,0.98573 -0.73022,7.5685 0.78753,2.71233 1.73331,7.03357 2.10173,9.60276 0.89625,6.25006 4.3217,9.67132 8.00355,7.99376 6.88283,-3.13603 13.25194,-0.15624 14.16156,6.62549 0.54328,4.05046 0.38152,4.34855 -5.3192,9.80152 -8.13803,7.78436 -11.0551,8.75418 -17.20951,5.72156 z m 20.64476,-62.56359 c 0.19529,-1.02978 -0.27905,-1.75 -1.15256,-1.75 -2.39702,0 -6.66222,-5.84277 -6.66222,-9.12638 0,-1.63512 0.73655,-4.39726 1.63677,-6.13809 l 1.63676,-3.16515 -4.35654,-3.86609 c -3.59659,-3.1917 -15.09271,-10.70429 -16.38021,-10.70429 -0.45566,0 -2.24911,11.66761 -3.01765,19.6319 l -0.59172,6.1319 3.43572,0.64455 c 1.88964,0.35449 5.16848,1.83777 7.2863,3.29617 9.86353,6.79235 17.43524,8.89541 18.16535,5.04548 z m 157.37505,50.22437 c -4.86069,-2.96348 -6.68811,-8.02024 -5.21035,-14.41784 0.6424,-2.78109 1.51012,-7.53153 1.92827,-10.55653 0.97723,-7.0694 5.4704,-22.24591 9.28688,-31.36811 5.70244,-13.63002 8.09392,-22.55345 7.51796,-28.0521 -0.63304,-6.0436 -6.34407,-18.4221 -11.17067,-24.21212 -1.89461,-2.27279 -3.72823,-5.26182 -4.07471,-6.6423 -0.76218,-3.03679 1.69261,-8.20535 4.64844,-9.78726 6.6969,-3.58407 18.37331,6.67107 22.90203,20.11437 3.7369,11.09281 2.86372,20.64143 -4.01883,43.94752 -2.73675,9.26734 -6.16817,24.16401 -5.67885,24.65333 0.22804,0.22804 2.54734,-0.0633 5.15399,-0.6475 2.60666,-0.58416 7.50387,-1.12971 10.8827,-1.21233 5.2182,-0.12759 7.19744,0.38217 13.14331,3.38511 4.40742,2.22594 9.19233,3.78408 12.9193,4.20699 3.25562,0.36942 8.55726,1.73719 11.78142,3.03948 l 5.86213,2.36782 1.71858,-2.4589 c 4.68932,-6.70937 6.47273,-8.334 9.14854,-8.334 2.26449,0 3.22334,0.86569 5.41111,4.88533 1.46241,2.68693 2.65892,5.40614 2.65892,6.0427 0,2.19127 -8.1428,12.17588 -10.81929,13.26649 -1.59959,0.6518 -10.14167,1.09801 -21.18071,1.10641 -17.59598,0.0134 -18.76882,-0.10771 -24.00126,-2.47839 -5.78697,-2.62192 -13.00711,-4.05343 -14.8135,-2.93702 -0.58825,0.36356 -2.6712,3.90181 -4.62876,7.86278 -3.85783,7.80601 -6.90587,10.25459 -12.75682,10.24796 -1.81481,-0.002 -4.78923,-0.91191 -6.60983,-2.02189 z m -251.68983,-3.10639 c -6.63877,-2.68599 -10.87137,-6.02348 -12.80402,-10.09623 -0.87201,-1.83762 -4.02826,-7.01179 -7.0139,-11.49815 -7.33289,-11.01875 -9.30451,-18.23766 -7.74453,-28.35593 1.06643,-6.91697 3.4272,-13.25927 6.33075,-17.00781 1.18446,-1.52916 9.4803,-7.26231 19.20918,-13.27524 4.80944,-2.97247 10.48384,-3.68057 17.37157,-2.16777 l 3.17621,0.69761 -0.19923,-15.33223 c -0.2398,-18.45455 0.68449,-26.54439 3.36824,-29.48075 2.83996,-3.10727 6.70986,-3.55146 10.52179,-1.20771 4.73792,2.91311 5.12652,6.84917 1.82483,18.48358 -2.28024,8.03506 -2.69379,11.39516 -2.65067,21.53687 0.0464,10.90351 0.29582,12.51668 2.69341,17.41717 2.93129,5.99135 2.79338,9.94091 -0.57331,16.41861 -3.14645,6.05397 -4.40637,17.02672 -2.97036,25.86929 1.56134,9.6144 0.66138,16.52028 -2.5746,19.75627 -1.30595,1.30594 -3.09895,2.37444 -3.98446,2.37444 -0.88551,0 -2.67931,1.27079 -3.98623,2.82397 -2.40131,2.8538 -8.23172,5.22166 -12.61069,5.1215 -1.31118,-0.03 -4.63398,-0.96486 -7.38398,-2.07749 z m 5.72343,-16.58665 c 3.13977,-1.38527 3.78148,-2.11275 3.30788,-3.75 -1.53074,-5.29189 -1.65288,-19.27703 -0.22041,-25.238 l 1.49151,-6.20666 -3.62897,-2.76796 c -1.99594,-1.52237 -4.9231,-4.24187 -6.5048,-6.04333 -3.56303,-4.05807 -5.21832,-4.09524 -9.91645,-0.22264 -3.99721,3.29484 -4.96126,5.80798 -6.79198,17.7057 -1.0174,6.61206 -0.93782,7.59162 0.8937,11 1.1058,2.05786 3.25283,6.31974 4.77117,9.47085 2.48535,5.158 3.16518,5.82039 6.81777,6.64291 5.72768,1.2898 5.48466,1.30448 9.78058,-0.59087 z m -89.11348,14.63734 c -2.41454,-0.47421 -5.11454,-1.47227 -6,-2.21791 -0.88547,-0.74564 -3.63495,-1.9147 -6.10995,-2.59791 -2.475,-0.6832 -7.04282,-2.78584 -10.15072,-4.67252 -6.65394,-4.03934 -7.47173,-4.13365 -10.57381,-1.21939 -3.391,3.18568 -9.96516,2.82299 -13.02547,-0.71861 -4.55755,-5.27432 -1.84916,-13.35749 5.90932,-17.63635 5.09312,-2.8089 8.32741,-8.40267 6.97744,-12.06765 -0.50796,-1.37904 -0.34164,-4.67249 0.41857,-8.28833 5.82122,-27.68808 5.96992,-38.59659 0.55403,-40.64184 -3.26458,-1.23284 -7.84558,-5.51147 -9.69863,-9.0585 -2.25136,-4.30944 -1.77931,-11.495 1.07514,-16.36575 2.81361,-4.80107 9.06546,-8.43391 14.51413,-8.43391 5.17457,0 11.76941,3.69424 14.81599,8.2995 2.29969,3.47625 2.67498,5.06978 2.62095,11.12885 -0.0447,5.01267 -0.69981,8.49167 -2.25,11.94877 -1.43272,3.19512 -2.21211,6.98874 -2.25994,11 -0.0401,3.36758 -0.47361,8.59788 -0.96325,11.62288 -0.48964,3.025 -1.36211,9.21668 -1.93881,13.75929 -1.25499,9.88523 -3.36773,15.57859 -6.77586,18.25943 l -2.51879,1.98128 4.88486,0.022 c 9.28099,0.0417 20.2969,7.52439 22.58029,15.33786 1.62047,5.54505 5.52683,10.33463 8.99451,11.02817 3.62191,0.72438 5.31477,4.15431 3.89433,7.89036 -0.93651,2.46319 -1.48821,2.71125 -5.80952,2.61209 -2.62612,-0.0603 -6.75028,-0.49756 -9.16481,-0.97177 z m 282.20637,-1.86205 c -6.57815,-2.98658 -7.68663,-6.11173 -7.5564,-21.30389 0.0781,-9.1156 0.68706,-15.09846 2.1373,-21 2.92039,-11.88403 3.65868,-21.32543 1.7256,-22.06723 -0.82845,-0.3179 -2.22803,-1.67955 -3.11018,-3.02587 -2.35391,-3.59252 -1.05974,-7.40419 3.10471,-9.14421 2.69601,-1.12647 3.38506,-1.98194 3.39452,-4.21439 0.0207,-4.89546 2.74617,-13.29502 5.47453,-16.87208 3.32398,-4.35796 11.83514,-8.81528 15.4115,-8.07104 1.43116,0.29782 4.93468,0.98228 7.7856,1.52102 6.76184,1.27778 8.50109,2.27514 16.59618,9.51688 7.16679,6.41129 9.72032,11.52032 9.72032,19.44814 0,6.1315 -8.63078,17.27233 -14.52735,18.75227 -1.30527,0.3276 -5.23684,-0.12253 -8.73682,-1.00029 -3.49998,-0.87776 -8.7779,-1.59593 -11.72872,-1.59593 -2.95081,0 -6.88414,-0.54929 -8.74073,-1.22064 -4.18559,-1.51353 -5.22877,-0.29401 -5.25106,6.13873 -0.008,2.42995 -0.51346,7.27862 -1.1223,10.77484 -0.92109,5.28932 -0.83713,7.18175 0.5,11.26981 0.88384,2.70218 1.60698,6.516 1.60698,8.47516 0,4.63137 2.77292,4.94753 3.67854,0.41942 0.89576,-4.47882 7.89686,-11.37529 13.12364,-12.92752 3.88604,-1.15406 4.7282,-1.07066 8.70672,0.86226 7.83926,3.80861 9.59048,11.73584 4.04776,18.32298 -1.40616,1.67113 -2.55666,3.8432 -2.55666,4.82683 0,2.68117 -3.9059,7.12087 -7.63578,8.67931 -1.81499,0.75835 -5.24428,1.37882 -7.62066,1.37882 -2.37637,0 -6.08597,0.9 -8.24356,2 -4.76656,2.43013 -4.95356,2.43117 -10.18368,0.0566 z m 33.93368,-73.97853 c 2.0625,-4.07955 3.75,-7.96634 3.75,-8.63731 0,-0.67097 -1.50329,-2.9093 -3.34064,-4.97408 -2.92841,-3.29087 -4.1208,-3.86082 -9.66282,-4.61874 -9.88856,-1.35235 -12.31693,1.08998 -14.0712,14.15204 -0.85414,6.35985 -0.81129,6.55681 1.98746,9.13459 2.58813,2.3838 3.56139,2.62157 10.22382,2.49773 l 7.36338,-0.13687 z m 128.54699,73.24163 c -3.56741,-0.93902 -3.40221,-7.67547 0.21639,-8.82397 2.30918,-0.7329 5.51397,0.83015 6.39166,3.11738 0.74754,1.94806 -1.88725,6.44018 -3.67809,6.27087 -0.67482,-0.0638 -1.9933,-0.31772 -2.92996,-0.56428 z m -422.41213,-2.54623 c -5.24494,-4.04801 -8.38486,-9.61641 -8.38486,-14.86993 0,-2.09364 -0.73138,-3.23748 -2.75,-4.30084 -4.42173,-2.32928 -12.93584,-11.80009 -14.02659,-15.60272 -2.12228,-7.39877 -3.46184,-17.91448 -3.06866,-24.08931 0.33373,-5.24109 1.15114,-7.72761 4.39887,-13.38113 4.14292,-7.21181 12.28743,-14.94959 16.97331,-16.12567 5.52935,-1.38778 12.11338,1.64338 15.4136,7.09611 1.09449,1.80836 1.15277,1.81777 0.60813,0.0983 -0.89567,-2.82782 2.0566,-11.88077 4.67006,-14.32043 3.30571,-3.08587 7.0152,-3.72535 10.66416,-1.83839 3.97825,2.05723 6.44171,5.84932 6.33093,9.74544 -0.15177,5.33808 -4.17266,13.74248 -7.3644,15.393 -2.5609,1.32429 -2.7528,1.73838 -1.71763,3.70648 0.64095,1.2186 2.20621,3.46712 3.47836,4.9967 3.13329,3.76733 4.44843,8.92297 3.31929,13.01237 -0.50015,1.81139 -2.92426,7.2422 -5.38692,12.06847 -2.46266,4.82627 -4.76874,10.32712 -5.12462,12.22412 -0.68629,3.65826 -4.11531,7.04895 -8.15364,8.06251 l -2.41079,0.60507 2.95328,3.1232 c 5.59669,5.91872 6.09389,9.71806 1.88092,14.3732 -2.72515,3.01117 -8.41763,3.02203 -12.3028,0.0235 z m 11.61514,-27.6639 c 2.20089,-0.60836 2.57918,-1.40404 3.16177,-6.65032 0.36398,-3.2776 0.97572,-8.01443 1.35943,-10.52629 0.62132,-4.0673 0.4047,-4.88794 -1.97974,-7.5 -1.69161,-1.8531 -2.86071,-2.49205 -3.17529,-1.73539 -0.27384,0.65867 -1.81006,3.13367 -3.41383,5.5 -2.62021,3.86607 -2.91779,5.1222 -2.93414,12.38574 -0.01,4.44584 0.2818,8.38334 0.64847,8.75 0.7946,0.7946 2.92106,0.71948 6.33333,-0.22374 z m -20.46039,-9.42852 c -1.3171,-7.17895 3.98537,-18.53317 9.99295,-21.39799 1.9071,-0.90943 3.46744,-2.02016 3.46744,-2.46829 0,-1.44702 -3.97683,-0.86725 -7.94807,1.15872 -2.12762,1.08543 -5.82219,2.27212 -8.21016,2.6371 -7.85027,1.19983 -8.17575,1.62257 -7.38987,9.59803 0.82319,8.354 1.91559,11.20534 5.9693,15.58078 l 3.04755,3.28942 0.79402,-2.78942 c 0.43671,-1.53418 0.56129,-4.05794 0.27684,-5.60835 z m 446.63471,28.00448 c -3.57958,-3.81029 -2.68189,-12.17797 1.78575,-16.64562 2.82519,-2.82519 8.07827,-2.69247 10.86562,0.27452 3.66739,3.90376 2.66869,9.80381 -2.61735,15.46253 -3.58829,3.84127 -6.98956,4.14925 -10.03402,0.90857 z M 419.60511,345.7073 c -3.65151,-2.24801 -5.23487,-5.24547 -5.90208,-11.17321 -0.27858,-2.475 -0.95397,-7.65 -1.50086,-11.5 -0.5469,-3.85 -1.01746,-14.84698 -1.0457,-24.43774 l -0.0514,-17.43774 -4.36681,5.93774 c -2.40175,3.26576 -5.59602,8.1705 -7.09838,10.89943 -4.8151,8.74631 -7.35783,9.41695 -13.41537,3.53831 -2.26695,-2.2 -4.57978,-4 -5.13963,-4 -1.1262,0 -0.43211,3.62215 1.65924,8.65886 7.12706,17.16444 2.45104,40.34114 -8.13905,40.34114 -2.85386,0 -8.33055,-4.42412 -9.59558,-7.7514 -1.24759,-3.28141 0.74224,-19.1715 3.0747,-24.55353 1.45733,-3.3627 1.65657,-5.28636 1.00413,-9.69507 -1.57922,-10.6713 -4.02222,-23.53873 -5.08523,-26.7842 -0.59163,-1.80632 -1.14822,-6.90502 -1.23686,-11.33046 -0.14717,-7.34797 0.0437,-8.21284 2.19963,-9.9658 1.29843,-1.05574 3.37524,-1.91954 4.61514,-1.91954 3.18103,0 7.16027,3.431 7.82313,6.7453 1.26768,6.33839 5.06808,14.47868 9.67006,20.71286 l 4.88513,6.61775 5.44913,-6.78795 c 2.99702,-3.73338 6.66911,-7.91296 8.1602,-9.28796 3.28177,-3.02628 5.53642,-8.10574 5.53642,-12.4729 0,-8.01481 4.38112,-12.48085 10.84977,-11.0601 2.28159,0.50112 3.35417,1.58542 4.5672,4.61707 2.32663,5.81484 3.62326,24.5064 3.39329,48.91593 -0.19496,20.69282 0.40434,28.39656 2.30023,29.56829 0.48923,0.30236 0.88951,2.52309 0.88951,4.93496 0,7.93683 -7.1902,12.55452 -13.5,8.66996 z M 39.605114,310.33097 c -2.723036,-1.53301 -3.466688,-2.81853 -3.484687,-6.02383 -0.02927,-5.21274 6.460012,-7.15487 10.478768,-3.13611 4.447953,4.44795 -1.508104,12.24843 -6.994081,9.15994 z M 432.29503,240.50853 c -4.47003,-2.21405 -10.27892,-5.84829 -12.90863,-8.07608 -9.19041,-7.78578 -18.70873,-20.88659 -23.40411,-32.21293 -1.63831,-3.95199 -3.3683,-8.08543 -3.84443,-9.18543 -1.86382,-4.306 -3.03275,-11.73806 -3.03275,-19.2823 0,-7.3372 -0.16791,-7.97318 -2.37001,-8.97652 -2.02615,-0.92318 -2.9009,-0.64225 -6.02902,1.93621 -2.01246,1.65884 -4.5641,4.79019 -5.67032,6.95857 -3.56025,6.97865 -10.86126,9.59192 -18.21276,6.51894 -8.93735,-3.73587 -10.53429,-15.51429 -3.50141,-25.82503 6.88214,-10.08974 22.02167,-18.44429 31.15491,-17.19244 l 4.38185,0.6006 1.16232,-6.6745 c 0.63927,-3.67097 2.26979,-9.09569 3.62338,-12.05493 1.35358,-2.95925 2.46106,-5.771 2.46106,-6.24836 0,-1.38289 6.19124,-6.8807 9.79311,-8.69626 1.88278,-0.94903 4.78537,-3.992704 6.77752,-7.106927 1.91642,-2.995851 4.57947,-6.16452 5.91789,-7.041487 1.33842,-0.876967 2.68469,-2.385937 2.99171,-3.353268 1.33034,-4.191514 8.54763,-5.115011 16.73226,-2.140995 2.90813,1.056716 7.24653,2.229128 9.64087,2.60536 5.41724,0.851229 10.40719,5.692768 15.12212,14.672353 1.81966,3.465544 3.95185,7.047084 4.73822,7.958974 2.6437,3.06574 7.33395,16.12701 8.34103,23.2279 1.482,10.44946 0.28159,15.35305 -8.12338,33.18334 -5.38543,11.42463 -14.56538,19.65455 -23.89748,21.42435 -5.90278,1.11944 -12.49928,-0.37556 -24.38598,-5.52672 -4.40002,-1.90677 -8.1458,-3.46686 -8.32396,-3.46686 -1.02799,0 0.0175,3.74149 2.31451,8.28324 7.12178,14.0813 16.97464,24.62649 24.86636,26.61365 2.73818,0.68948 7.16048,0.88574 11.02856,0.48945 4.94364,-0.50649 7.51743,-0.25676 10.97923,1.06532 11.19995,4.2773 13.88361,18.60323 4.95369,26.44381 -4.27484,3.75336 -9.01501,5.09184 -18.05765,5.09895 -6.27413,0.005 -8.02801,-0.45835 -15.21871,-4.01998 z m -8.68992,-78.9104 c 10.21299,-1.77838 11.08496,-2.57693 16.50158,-15.11212 5.6815,-13.14817 5.31171,-27.94678 -1.05816,-42.34694 -2.21701,-5.011905 -8.94429,-10.604979 -12.75555,-10.604979 -2.26692,0 -9.18787,6.189509 -9.18787,8.216859 0,0.45431 -1.07073,2.50387 -2.37941,4.55458 -1.96363,3.07703 -2.58255,6.00019 -3.54192,16.72856 -1.07822,12.05732 -0.68798,37.70509 0.60554,39.79806 0.30395,0.4918 1.96185,0.61123 3.68422,0.2654 1.72236,-0.34583 5.38157,-1.02057 8.13157,-1.49942 z m -88,80.29205 c -1.65,-0.8338 -3.9,-2.71752 -5,-4.18604 -1.84699,-2.46578 -1.97774,-3.97061 -1.70911,-19.67005 0.15999,-9.35 0.71939,-19.475 1.24311,-22.5 1.35874,-7.84808 1.36443,-20.3105 0.0168,-36.82259 -1.6154,-19.79294 -1.52612,-19.65297 -7.63707,-11.97255 -2.75481,3.46233 -5.52921,7.50848 -6.16533,8.99145 -0.63612,1.48298 -2.73,4.4379 -4.65306,6.5665 -6.50749,7.20301 -13.55275,21.64792 -13.5845,27.85233 -0.006,1.16333 -0.94349,3.30083 -2.08341,4.75 -1.69364,2.15312 -2.90012,2.63486 -6.59879,2.63486 -3.79523,0 -5.00524,-0.51281 -7.49239,-3.17531 -4.35592,-4.66303 -5.68754,-7.75163 -10.22853,-23.72442 -2.25924,-7.9468 -4.59523,-14.60783 -5.19109,-14.80229 -2.71658,-0.88657 -7.00012,22.77096 -6.65923,36.77823 0.19816,8.14235 -0.32221,13.42206 -2.26123,22.94267 -2.75554,13.52975 -4.151,16.51207 -8.60183,18.38351 -4.88684,2.05476 -8.41658,0.90815 -11.56415,-3.75652 -3.41708,-5.06407 -8.71692,-10.3338 -11.0798,-11.01684 -1.80021,-0.5204 -14.01758,-3.36955 -17.96893,-4.19044 -1.66044,-0.34496 -2.5799,0.23369 -3.65498,2.30025 -3.41614,6.5666 -8.92086,9.04712 -14.02051,6.31787 -3.2009,-1.71307 -4.35397,-5.29483 -5.16909,-16.05671 -0.80298,-10.60168 0.66341,-19.1082 4.99917,-29 9.22798,-21.05315 13.42772,-40.15108 16.60289,-75.5 0.64223,-7.149999 1.94193,-15.042621 2.8882,-17.53916 0.99194,-2.61702 1.53535,-6.125084 1.28327,-8.28434 -0.34785,-2.979597 0.0261,-4.146996 1.8292,-5.710839 2.71546,-2.355109 3.23486,-2.392212 6.9068,-0.493378 4.70739,2.434286 10.17996,16.068025 7.51815,18.729842 -0.2945,0.294502 -0.70428,10.157002 -0.91061,21.916665 -0.35479,20.221 -0.57094,22.24942 -3.98344,37.38121 -1.98456,8.8 -4.23586,18.025 -5.00288,20.5 -1.45443,4.6931 -5.93909,23.76721 -7.10982,30.23944 -0.75789,4.18987 -1.16034,3.90254 8.0422,5.74158 3.3,0.65947 8.45862,2.04206 11.46359,3.07243 3.94306,1.35202 5.65904,1.55716 6.16588,0.73708 0.38625,-0.62498 1.01572,-4.32102 1.39881,-8.21342 0.3831,-3.89241 1.28272,-8.87711 1.99915,-11.07711 0.71644,-2.2 2.90629,-9.625 4.86634,-16.5 3.81418,-13.37848 9.04012,-29.166 10.54397,-31.85323 0.64814,-1.15816 0.27688,-2.67483 -1.25932,-5.14455 -1.70717,-2.74461 -2.15358,-4.9246 -2.06363,-10.0775 0.0631,-3.6164 0.63603,-8.15468 1.27311,-10.08505 2.31751,-7.02213 9.92559,-11.49648 16.51839,-9.71456 9.33869,2.52409 19.59371,23.76455 19.59371,40.58298 0,3.96796 0.90917,11.16939 2.02038,16.00319 2.72686,11.86194 2.68902,11.77479 4.47071,10.29612 1.69376,-1.40569 1.46557,-0.98519 13.02748,-24.0074 4.83373,-9.625 10.05661,-19.12349 11.6064,-21.10776 1.54978,-1.98427 3.96955,-7.25374 5.37726,-11.70994 1.40771,-4.4562 3.70376,-9.46208 5.10232,-11.12418 6.4795,-7.700448 19.07206,-5.699633 23.03347,3.65976 1.9412,4.58635 1.69909,8.88376 -1.03776,18.42025 -4.53563,15.80429 -5.07164,19.80398 -5.00705,37.36187 0.0626,17.02106 1.33704,30.83047 4.0659,44.05756 0.80081,3.88166 1.54262,11.31484 1.64846,16.51817 0.17361,8.53505 -0.0341,9.74918 -2.12275,12.41017 -4.09086,5.21177 -10.09717,6.69382 -15.68482,3.87019 z m 266.31319,-0.87624 c -0.28608,-0.28608 -4.07358,-1.18274 -8.41667,-1.99258 -4.91589,-0.91665 -10.72747,-2.9297 -15.39652,-5.33313 -4.125,-2.12338 -11.1955,-5.13526 -15.71223,-6.69306 -5.01782,-1.73063 -10.46358,-4.53621 -14,-7.2126 -5.87133,-4.44347 -11.07607,-7.46357 -14.89222,-8.64136 -1.98555,-0.61281 -2.14279,-0.1899 -2.78284,7.48484 -0.72793,8.72856 -2.42331,13.20113 -5.66083,14.9338 -4.99106,2.67113 -8.83078,-1.57004 -10.02388,-11.0719 -0.49748,-3.96196 -1.65734,-9.59181 -2.57746,-12.51077 -1.99326,-6.32334 -3.16409,-6.81524 -13.9052,-5.8419 -6.77874,0.61427 -7.72659,0.46568 -10.93548,-1.71431 -5.00101,-3.39749 -7.26749,-9.56121 -5.49293,-14.93815 1.69083,-5.12329 6.99921,-10.57373 11.19583,-11.49546 1.80761,-0.39701 5.22263,-1.66247 7.58895,-2.81211 3.7973,-1.84487 4.22592,-2.38675 3.65098,-4.61571 -0.35827,-1.389 -1.26272,-6.25468 -2.00988,-10.81262 -1.07689,-6.56937 -1.98907,-9.05219 -4.40064,-11.97784 -1.67319,-2.02987 -3.04217,-4.28549 -3.04217,-5.01249 0,-2.08254 -2.88771,-7.26599 -7.19456,-12.91423 -6.10844,-8.01096 -9.1858,-22.29449 -6.71219,-31.154542 1.01314,-3.628865 2.96278,-6.31504 8.85301,-12.197469 6.34841,-6.339999 8.51115,-7.843436 13.55374,-9.421896 5.77084,-1.80642 6.52573,-1.814532 19.76423,-0.2124 12.7175,1.539079 14.61868,2.055153 25,6.78621 18.48029,8.421981 28.11156,16.851174 29.17738,25.535757 0.32778,2.67084 1.28993,8.00607 2.13811,11.85607 2.54483,11.55138 2.68202,13.24187 1.47893,18.2229 -1.35308,5.60197 -10.90802,19.02189 -16.94476,23.79894 -2.18187,1.72657 -8.32457,5.57799 -13.65045,8.55869 -5.32588,2.98071 -11.54642,7.0676 -13.82343,9.08199 l -4.14001,3.66251 2.8151,1.08749 c 1.54831,0.59811 4.07982,1.08748 5.62557,1.08748 3.43383,0 12.39984,3.87698 19.56302,8.45921 2.92609,1.87179 8.39729,4.13738 12.15824,5.03463 3.76094,0.89725 10.43807,3.36043 14.83807,5.47372 9.48679,4.55645 16.74443,6.03244 29.66232,6.03244 8.26898,0 9.99204,0.30334 12.916,2.2738 5.79169,3.90301 8.16654,8.39516 7.67505,14.51767 -0.47212,5.88109 -2.61604,9.46902 -7.7432,12.95853 -2.98176,2.02937 -4.50082,2.25 -15.49138,2.25 -6.702,0 -12.41952,-0.23407 -12.7056,-0.52015 z m -71.67103,-80.16402 c 8.57773,-4.8074 19.17787,-14.35822 26.12655,-23.54024 l 3.57529,-4.72441 -0.172,-12.22546 -0.172,-12.22546 -4.32773,-3.30013 c -5.01613,-3.82506 -8.73759,-4.13563 -25.67227,-2.14244 -11.11907,1.30871 -15.23674,3.37832 -17.47567,8.78359 -1.09403,2.64123 -0.99837,3.71687 0.69466,7.81088 1.07988,2.61131 2.79767,8.22602 3.81731,12.47712 1.72795,7.20421 1.74346,7.96087 0.2283,11.13818 -1.47408,3.09118 -1.48654,4.0807 -0.13367,10.61715 1.77262,8.56453 2.98935,12.01539 4.23647,12.01539 0.5043,0 4.67794,-2.10788 9.27476,-4.68417 z M 83.719994,230.44579 c -4.31951,-3.39772 -5.618474,-7.03275 -5.578917,-15.61204 0.03032,-6.57587 0.383353,-8.20459 2.25,-10.38041 3.485957,-4.06333 7.659206,-5.31557 12.690841,-3.80805 5.01404,1.50224 8.312462,5.43596 11.021892,13.14477 2.43893,6.9392 1.75169,11.83979 -2.21691,15.8084 -2.625048,2.62505 -3.600912,2.93563 -9.22385,2.93563 -4.862647,0 -6.890084,-0.47343 -8.943056,-2.0883 z m 48.885116,-5.79274 c -11.26369,-5.40557 -13.27059,-9.10624 -14.4356,-26.61896 -1.24973,-18.78615 0.28261,-36.57723 4.90501,-56.94934 2.42466,-10.68611 2.48703,-12.16153 0.54559,-12.90653 -0.9976,-0.38281 -2.5246,1.01815 -4.65238,4.26838 -7.37742,11.26912 -17.86794,13.15868 -25.81728,4.6502 -3.82,-4.08869 -4.074941,-13.18418 -0.590375,-21.06271 1.459544,-3.3 3.866765,-7.27765 5.349378,-8.83921 6.878087,-7.244365 18.567467,-10.617256 25.247277,-7.284928 1.80017,0.898048 3.35161,1.518358 3.44763,1.378478 0.096,-0.13989 0.92325,-3.365275 1.83829,-7.16753 2.5128,-10.441496 7.00574,-17.25333 14.50057,-21.984611 2.03814,-1.286618 4.9565,-4.31812 6.48525,-6.736671 4.3582,-6.894864 8.74295,-9.366413 16.60729,-9.361031 5.32341,0.0036 7.43866,0.5147 11.15285,2.694578 6.16787,3.619955 16.08259,14.397123 19.30581,20.985155 2.3015,4.704096 2.65202,6.765936 2.86254,16.838131 0.26778,12.811789 -0.68226,16.639049 -6.89721,27.785329 -4.50564,8.0807 -8.67502,12.80492 -12.04824,13.65155 -1.46961,0.36885 -3.97429,1.76641 -5.56594,3.1057 -4.00033,3.36606 -10.71543,3.31488 -17.32098,-0.132 -2.70571,-1.41189 -7.61948,-3.37556 -10.91948,-4.36373 -3.3,-0.98816 -6.83606,-2.14976 -7.85792,-2.58133 -1.77177,-0.7483 -1.82598,-0.23295 -1.16925,11.11372 0.37876,6.54412 1.11716,13.4734 1.64088,15.3984 0.52372,1.925 1.66851,9.35 2.54398,16.5 0.87546,7.15 1.87313,14.92297 2.21703,17.27327 l 0.62528,4.27327 4.95793,-4.10511 c 6.8192,-5.64623 9.80298,-7.03925 13.49579,-6.30069 3.54657,0.70932 7.04628,4.98472 7.04628,8.60804 0,1.49076 -1.89405,4.60449 -4.86847,8.00352 -2.67766,3.05991 -5.17062,6.76732 -5.5399,8.23868 -1.09701,4.37081 -5.225,10.11932 -8.89581,12.388 -4.87328,3.01185 -10.85708,2.76192 -18.19582,-0.76002 z m 35.26972,-91.36896 c 2.13958,-2.63597 5.18571,-16.5026 5.32707,-24.25 0.17371,-9.519872 -0.77101,-12.232532 -6.66122,-19.127099 -5.53074,-6.473804 -8.89008,-7.483225 -14.79152,-4.44459 -5.51844,2.841432 -7.99048,7.451104 -10.64523,19.850409 l -2.18384,10.19986 3.00766,3.76071 c 4.21681,5.2726 10.05932,10.69555 14.17736,13.15928 3.88572,2.32472 10.20294,2.78171 11.76972,0.85143 z m -96.114728,60.42126 c -2.371481,-2.62046 -2.04459,-6.50717 0.914794,-10.87685 3.634813,-5.36698 6.609468,-6.7702 10.303027,-4.86018 5.340045,2.76144 5.536901,7.55885 0.549268,13.38577 -2.844895,3.32362 -4.247269,4.18 -6.845012,4.18 -1.895112,0 -3.962083,-0.76796 -4.922077,-1.82874 z M 676.78395,191.7317 c -1.59925,-1.76714 -1.5798,-1.97726 0.3442,-3.71845 1.91316,-1.7314 2.14351,-1.74118 3.72635,-0.15835 1.58283,1.58284 1.56155,1.8127 -0.3442,3.71845 -1.9826,1.9826 -2.07199,1.9864 -3.72635,0.15835 z m -2.32184,-11.18919 c -5.03384,-2.03141 -6.97138,-9.4976 -3.53232,-13.6116 3.95548,-4.73177 8.70816,-5.57772 13.2334,-2.35547 4.00113,2.84906 4.82001,7.80181 2.03499,12.30807 -2.7004,4.36934 -6.80484,5.649 -11.73607,3.659 z"/></svg>