<?xml version="1.0" encoding="UTF-8" standalone="no"?><!DOCTYPE svg PUBLIC "-//W3C//DTD SVG 1.1//EN" "http://www.w3.org/Graphics/SVG/1.1/DTD/svg11.dtd"><svg width="100%" height="auto" viewBox="0 0 3586 1396" version="1.1" xmlns="http://www.w3.org/2000/svg" xmlns:xlink="http://www.w3.org/1999/xlink" xml:space="preserve" xmlns:serif="http://www.serif.com/" style="fill-rule:evenodd;clip-rule:evenodd;stroke-linejoin:round;stroke-miterlimit:2;"><g id="Background" fill="#F4EFE6"><path d="M142.058,382.126c20.88,8.08 34.489,3.116 46.738,15.106c1.759,1.722 2.187,1.788 2.427,1.826c2.521,0.391 2.222,-1.104 4.963,-0.679c1.108,1.095 1.738,2.612 2.847,3.708c18.741,18.528 43.004,-61.013 142.587,-77.44c85.608,-14.122 101.083,2.456 119.556,28.094c19.564,27.153 61.457,63.938 70.511,86.098c34.267,83.863 5.096,108.346 -98.997,194.292c-24.617,20.326 -36.583,43.663 -60.483,62.557c-10.105,7.989 -1.442,9.536 8.193,23.649c54.346,79.603 47.882,85.581 49.926,108.98c0.449,5.142 1.721,19.695 24.696,59.608c4.199,7.294 53.829,49.605 66.188,83.321c14.493,39.541 44.393,59.408 49.999,69.827c11.927,22.168 17.355,21.715 12.958,39.82c-9.545,5.27 -4.058,10.477 -13.124,16.468c-9.42,6.224 -6.482,9.532 -16.367,14.62c-0.92,0.474 -0.298,0.877 -9.992,8.221c-22.49,1.823 -23.261,1.997 -41.865,-10.986c-1.517,-1.059 -11.029,-17.456 -11.66,-21.588c-5.394,-35.31 -15.901,-33.394 -24.641,-83.434c-11.524,-65.985 -24.301,-60.402 -59.895,-104.191c-17.1,-21.037 -27.872,-11.031 -41.089,-19.399c-37.363,-23.656 -42.418,-37.411 -60.661,-58.788c-4.841,-5.672 -11.317,-2.853 -6.619,3.209c27.043,34.889 23.384,36.884 44.9,75.488c14.329,25.709 13.706,39.193 22.69,56.943c2.096,4.14 25.922,75.019 26.219,76.857c7.806,48.312 25.354,46.266 17.429,96.777c-2.053,13.087 -35.386,28.962 -54.11,34.078c-20.643,5.641 -19.496,-6.377 -40.492,-6.927c-10.858,-0.285 -10.304,-11.01 -14.338,-16.556c-26.438,-36.352 -11.367,-41.86 -28.201,-104.11c-17.272,-63.87 -15.128,-64.319 -17.123,-69.703c-7.332,-19.79 -18.052,-64.527 -22.032,-96.668c-0.527,-4.254 -6.18,-49.918 -6.457,-53.187c-4.41,-52.069 -13.294,-49.68 -28.835,-99.376c-15.097,-48.277 -54.811,-118.823 -69.082,-163.216c-27.994,-87.077 -34.755,-120.817 -21.492,-144.396c2.17,0.233 2.794,4.035 4.964,4.268c1.482,0.159 1.753,-2.441 2.872,-3.427c1.551,-1.367 8.747,-4.411 9.505,-13.194c0.087,-1.008 0.228,-2.647 7.354,-10.288c5.293,-2.766 5.189,-2.369 10.034,-6.259Zm351.333,110.224c0.112,43.27 -16.411,36.863 -130.14,164.214c-28.258,31.643 -36.057,10.343 -51.427,11.405c-26.522,1.832 -36.933,19.115 -40.038,-2.799c-9.53,-67.259 -1.227,-103.629 -18.746,-146.744c-9.212,-22.672 3.408,-21.392 57.58,-87.208c9.026,-10.966 15.323,-31.126 77.486,-46.413c22.096,-5.434 19.556,5.308 57.08,37.202c25.706,21.85 40.905,32.729 48.204,70.343Z" style="fill-opacity:1;"/><path d="M3305.255,1034.444c-33.567,-31.939 -40.616,-23.154 -72.49,-57.104c-52.645,-56.074 -50.737,-58.463 -63.456,-63.38c-33.646,-13.009 -24.517,-26.004 -56.135,-43.862c-61.121,-34.52 -89.648,-83.773 -76.407,-42.157c2.656,8.349 15.732,35.818 19.818,59.945c1.465,8.647 6.547,7.312 24.858,106.777c7.144,38.808 34.868,51.275 -9.865,78.029c-18.827,11.26 -20.323,9.158 -38.926,8.445c-8.145,-0.312 -27.119,-13.772 -30.142,-23.414c-9.968,-31.8 13.818,-54.993 -12.612,-199.75c-14.966,-81.971 -20.271,-92.239 -24.031,-99.515c-5.07,-9.812 -19.426,-6.218 -34.299,-42.863c-3.168,-7.805 -2.324,-8.03 -31.969,-100.327c-13.31,-41.439 -9.003,-47.037 -27.065,-99.614c-9.944,-28.948 36.176,-46.286 46.996,-45.491c25.421,1.866 23.143,-11.068 70.015,-16.939c43.737,-5.478 43.858,-3.077 86.462,-13.816c27.326,-6.888 32.183,-0.127 66.569,8.964c54.944,14.526 34.271,75.145 34.097,150.269c-0.12,51.824 2.78,52.064 -8.844,102.844c-7.005,30.6 -9.308,29.674 -26.894,55.728c-8.052,11.929 -34.64,31.325 -31.287,37.397c7.727,13.994 50.203,36.33 65.17,54.178c17.549,20.928 27.819,13.928 52.766,37.302c32.732,30.668 36.21,26.794 65.073,61.346c17.751,21.249 51.365,44.062 65.322,32.366c10.431,-8.741 19.501,-2.552 20.499,-2.682c5.846,-0.762 4.477,-4.073 10.168,-4.835c5.456,-0.731 8.984,5.371 9.435,6.151c5.445,9.416 37.519,-7.277 27.035,39.277c-1.188,5.273 20.318,61.543 -26.499,76.699c-11.461,3.71 -11.405,-0.209 -26.842,-2.098c-1.854,-1.434 -1.303,-4.848 -3.157,-6.282c-0.939,-0.726 -2.167,1.52 -3.326,1.268c-1.426,-0.31 -2.197,-1.937 -3.42,-2.735c-8.463,-5.524 -12.524,1.189 -13.365,1.324c-1.138,0.182 -2.076,-1.732 -3.172,-1.376c-1.75,0.568 -2.322,3.159 -4.072,3.727c-8.068,-8.792 -8.752,-7.826 -17.3,-16.076c2.736,-14.854 -3.027,-13.781 -7.933,-28.042c-2.594,-7.541 -3.03,-7.722 -10.772,-9.678Zm-312.345,-524.143c30.632,-2.8 30.362,-2.391 32.999,-2.635c33.724,-3.123 36.528,-15.81 69.587,-4.377c15.974,5.524 16.524,2.342 24.006,3.946c4.201,0.9 11.703,2.508 14.82,51.624c6.085,95.886 -3.757,102.627 -7.263,119.809c-4.819,23.619 -7.496,22.651 -24.508,39.732c-15.596,15.659 -59.457,20.934 -72.168,40.593c-6.811,10.535 -1.946,13.624 -2.625,15.281c-5.724,13.984 -9.458,-26.847 -22.609,-48.701c-16.53,-27.471 -15.495,-28.177 -27.669,-93.925c-17.444,-94.216 -12.299,-94.873 -14.126,-102.986c-3.239,-14.384 12.666,-14.108 29.555,-18.362Z" style="fill-opacity:0.99;"/><path d="M2074.803,1147.745c-14.443,2.37 -16.003,2.137 -23.723,-10.024c-3.427,-5.398 -11.464,-7.826 -11.65,-14.051c-0.341,-11.438 -10.964,-16.558 -10.101,-36.02c3.619,-81.636 10.241,-83.255 -6.396,-120.459c-11.601,-25.943 -11.652,-25.754 -26.704,-50.045c-2.255,-3.639 -0.462,-4.382 -21.363,-49.057c-15.421,-32.962 -9.992,-67.315 -9.072,-73.138c0.708,-4.478 -3.034,-4.453 -1.282,-56.654c0.455,-13.574 3.368,-13.509 -0.398,-26.309c-3.139,-10.666 7.854,-12.794 -26.774,-136.37c-12.27,-43.788 -52.154,-55.56 -57.074,-76.432c-4.577,-19.42 14.759,-20.944 2.095,-43.819c-3.103,-5.605 1.084,-41.635 36.347,-48.435c10.867,-2.095 13.982,-14.881 26.114,-10.43c21.557,7.908 68.338,-37.92 109.762,-42.087c35.159,-3.537 34.667,-5.911 70.022,-9.252c11.625,-1.098 11.589,2.048 23.003,-0.417c13.11,-2.831 16.81,-2.715 55.946,35.295c7.468,7.253 40.892,73.018 -25.81,91.854c-29.173,8.238 -29.428,5.765 -59.66,8.206c-35.325,2.852 -34.809,8.796 -70.019,5.985c-16.604,-1.326 -16.463,-0.436 -33.19,-2.592c-10.932,-1.409 -3.816,7.696 -5.379,32.044c-0.347,5.403 2.2,101.251 3.376,106.109c14.516,59.985 12.231,63.473 18.597,63.66c2.951,0.087 36.473,-4.136 69.722,3.781c20.903,4.977 62.866,-5.856 76.919,-1.694c21.965,6.505 40.614,0.511 38.607,30.893c-0.216,3.266 -17.794,42.613 -35.629,46.116c-40.6,7.975 -41.281,-9.758 -66.277,-2.375c-7.244,2.14 -57.279,6.116 -55.059,19.307c0.695,4.128 1.234,3.663 16.504,49.656c23.62,71.144 2.191,75.521 25.369,146.723c4.65,14.286 9.553,39.347 19.78,37.227c67.251,-13.935 67.579,-4.993 83.08,-4.575c3.211,0.087 12.607,-2.521 19.58,-1.037c61.081,12.997 63.887,-8.8 100.203,-6.042c37.442,2.844 35.151,13.231 46.38,24.528c7.192,7.236 14.283,25.897 11.796,32.673c-7.857,21.404 -0.927,31.331 -31.623,43.757c-8.172,3.308 -46.07,4.39 -83.109,20.051c-2.222,0.94 -2.488,-0.872 -29.963,3.422c-15.214,2.378 -16.913,-5.513 -46.896,1.918c-27.43,6.798 -63.613,3.884 -71.854,18.613c-3.02,-1.994 -1.377,-3.386 -4.351,-5.351c-0.234,-0.155 -1.053,-0.695 -3.504,0.163c-8.651,3.031 -8.619,0.118 -13.265,-0.634c0,0 -6.007,3.716 -6.53,4.039c-8.375,-0.356 -8.271,-0.879 -16.548,1.278Z" style="fill-opacity:0.99;"/><path d="M1675.698,621.846c-0.671,1.352 -6.893,13.88 0.489,18.864c7.153,4.829 3.063,-11.042 5.348,-19.415c2.027,-4.783 2.006,-4.757 2.189,-5.166c8.717,-19.458 13.448,-15.514 27.579,-31.615c9.154,-10.43 11.272,-6.882 23.934,-12.991c6.386,-3.081 100.581,-1.186 103.596,-0.138c3.391,1.179 10.358,3.601 31.639,31.831c21.104,27.996 23.939,34.93 25.33,38.333c1.215,2.971 15.086,36.897 15.153,37.153c12.579,48.159 -0.302,62.587 -14.024,81.713c-38.143,53.166 -32.665,57.236 -78.3,104.317c-10.652,10.989 8.655,10.448 16.729,23.193c10.826,17.091 11.907,16.025 25.04,31.351c25.476,29.731 30.378,59.491 31.318,65.201c4.226,25.656 21.945,19.658 30.14,22.913c28.662,11.383 24.897,17.894 52.584,31.347c26.825,13.034 20.552,61.717 -2.865,68.65c-30.869,9.139 -32.54,-7.121 -40.594,-15.857c-26.036,-28.239 -6.757,-43.224 -33.021,-56.052c-40.856,-19.955 -26.696,-41.572 -37.647,-56.549c-7.994,-10.933 -148.365,-93.374 -135.221,-47.578c4.693,16.352 2.884,16.514 5.467,33.446c1.278,8.374 1.358,28.969 5.892,42.604c8.948,26.907 6.097,27.45 7.071,29.689c8.092,18.614 -23.73,56.597 -43.599,39.173c-25.523,-22.383 -16.794,-28.269 -19.835,-42.231c-3.605,-16.548 1.724,-16.263 1.972,-32.944c0.019,-1.307 -5.202,-50.602 -6.415,-53.235c-13.262,-28.786 -15.046,-108.681 -20.43,-136.261c-14.912,-76.386 -41.605,-165.559 -45.862,-179.779c-11.684,-39.031 28.621,-57 46.098,-52.442c31.057,8.1 20.47,33.067 20.247,42.477Zm33.122,176.377c-1.647,-6.266 -1.746,-6.209 -1.779,-6.767c-3.46,-57.707 -9.338,-59.067 10.753,-113.383c6.013,-16.256 29.744,-42.318 37.376,-44.013c13.546,-3.007 13.608,-0.891 27.157,-4.317c28.519,-7.211 26.843,4.017 39.649,8.721c23.757,8.726 26.724,5.749 51.591,37.91c29.508,38.162 4.267,52.889 2.019,55.645c-2.262,2.772 -17.399,21.329 -30.638,32.578c-41.477,35.245 -39.55,40.287 -66.215,43.961c-1.619,-1.162 -1.848,0.807 -3.363,-0.28c-0.326,-0.234 0.082,-0.425 -2.808,-4.147c-4.091,-5.268 -18.927,-1.464 -20.519,-1.056c-19.583,-6.087 -20.172,-14.167 -28.95,-6.743c-4.824,4.08 -5.162,3.195 -11.162,2.4l-3.11,-0.509Zm43.222,4.852c1.592,-0.408 16.429,-4.212 20.519,1.056c2.89,3.722 2.483,3.914 2.808,4.147c1.515,1.087 1.744,-0.882 3.363,0.28c-14.439,7.953 -17.798,8.392 -26.69,-5.484Z" style="fill-opacity:0.99;"/><path d="M2982.998,1101.016c-10.593,7.582 -9.56,14.416 -27.447,21.498c-28.231,11.177 -29.314,5.74 -59.182,11.974c-11.231,2.344 -11.571,-7.037 -83.293,2.53c-4.304,0.574 -43.076,5.746 -53.428,9.571c-18.322,6.769 -16.68,-5.188 -59.735,-22.064c-21.975,-8.614 -1.986,-31.854 -16.714,-60.124c-28.577,-54.853 -21.093,-57.363 -36.684,-126.439c-10.458,-46.33 7.39,-47.987 -11.003,-146.163c-0.863,-4.606 -0.448,-22.229 -6.199,-29.506c-21.023,-26.601 0.161,-36.121 -0.652,-47.278c-2.102,-28.869 -12.459,-47.687 -9.205,-123.061c1.765,-40.876 -0.163,-40.791 -12.336,-79.881c-0.531,-1.705 -0.572,-1.835 -11.563,-19.093c-3.109,-4.881 -12.926,-8.92 -10.742,-17.25c3.539,-13.495 2.366,-13.568 -1.397,-26.765c-4.35,-15.256 11.718,-10.649 25.668,-31.125c17.054,-25.031 24.614,-18.145 50.485,-7.244c7.666,3.23 44.797,-18.348 77.035,-14.543c2.637,0.311 2.663,-3.105 33.194,0.446c42.093,4.897 41.446,7.572 59.992,15.824c0.66,0.293 28.857,1.35 20.801,23.632c-9.28,25.665 -24.732,36.837 -27.844,39.087c-11.761,8.503 -60.307,21.86 -122.341,9.064c-21.878,-4.513 -14.851,10.134 -27.298,21.009c-15.748,13.759 -13.052,16.133 -12.15,36.912c3.242,74.691 1.508,109.181 16.997,145.968c4.653,11.051 20.204,0.965 78.764,5.895c16.674,1.404 16.242,2.97 33.123,3.369c10.975,0.26 61.395,-9.389 70.056,27.715c3.916,16.777 -48.428,52.59 -109.96,51.141c-32.162,-0.758 -49.733,-4.492 -47.399,5.578c3.531,15.236 32.59,75.994 45.565,135.863c5.674,26.181 13.122,35.104 18.916,93.471c0.317,3.196 3.625,36.515 6.555,39.603c0.634,0.668 89.51,9.167 152.841,-15.807c52.706,-20.783 66.685,27.121 56.298,59.391c-0.466,1.448 -2.966,2.002 -2.902,3.521c0.063,1.522 3.122,1.756 3.185,3.278Z" style="fill-opacity:0.99;"/><path d="M1297.369,318.345c-11.673,7.602 -4.984,10.592 -4.186,10.213c0.721,-0.343 0.546,-0.498 7.367,-6.724c1.098,1.567 8.161,11.652 11.23,21.119c16.203,49.976 19.571,48.455 20.39,52.917c4.823,26.262 23.369,38.039 0.785,38.626c-12.327,0.321 -24.309,22.046 -39.853,17.706c-20.524,-5.731 -21.056,-3.607 -22.604,-4.612c-11.463,-7.44 -14.461,-1.879 -24.048,-11.881c-23.283,-24.292 -24.507,-52.034 -28.234,-63.816c-1.77,-5.595 -20.265,-20.137 -41.543,-20.844c-38.548,-1.281 -16.333,52.083 -22.366,78.133c-13.651,58.94 -12.85,99.783 -12.215,149.507c0.29,22.684 9.501,28.995 40.044,51.323c11.508,8.412 18.29,22.048 30.812,29.02c88.53,49.293 82.076,57.959 100.077,79.307c10.019,11.882 16.335,4.823 42.59,37.138c13.778,16.958 56.617,124.076 55.715,139.151c-6.38,106.678 -9.578,124.251 -48.88,165.816c-19.43,20.549 -97.793,12.757 -153.43,-38.508c-50.323,-46.369 -55.215,-55.186 -58.498,-61.104c-6.594,-11.888 0.146,-13.213 -3.457,-26.425c4.907,-9.677 6.986,-9.955 2.576,-20.127c25.766,-27.385 30.044,-22.095 30.193,-22.062c15.583,3.553 15.576,1.51 16.893,1.85c54.091,13.962 75.627,85.851 100.973,105.561c37.518,29.176 40.817,21.491 41.631,20.911c32.234,-22.966 14.838,-57.252 19.199,-82.902c0.572,-3.367 5.101,-30.003 -2.994,-42.586c-30.201,-46.944 -25.592,-49.126 -45.462,-90.433c-8.332,-17.321 -32.38,-6.44 -56.212,-30.431c-45.828,-46.135 -47.34,-44.585 -50.649,-49.161c-36.525,-50.503 -40.969,-63.719 -43.063,-69.948c-1.195,-3.552 -3.88,-11.54 -34.303,-31.908c-39.924,-26.73 -35.951,-59.435 -54.707,-88.367c-16.448,-25.371 -26.607,-91.524 -26.462,-99.203c0.838,-44.438 -0.645,-44.963 15.456,-86.53c31.74,-81.942 100.19,-87.591 126.732,-92.068c3.995,-0.674 28.584,-4.822 49.907,8.589c28.481,17.913 39.062,8.183 60.59,32.75Z" style="fill-opacity:0.99;"/><path d="M2334.36,501.501c28.798,11.866 32.448,43.395 37.402,56.854c2.8,7.607 7.97,94.389 9.881,106.477c-1.137,2.842 -10.25,13.55 -4.12,16.036c1.735,0.703 1.499,-0.469 9.147,-13.338c2.935,-4.851 16.685,-27.575 33.348,-62.536c1.19,-2.496 -1.177,-3.092 12.141,-32.357c1.389,-3.052 5.732,-12.595 25.892,-32.962c20.579,-20.789 24.858,-9.605 32.617,-8.642c8.273,1.027 22.753,-2.797 32.474,37.846c8.53,35.665 -2.587,50.148 -21.743,96.643c-0.908,2.203 -1.312,1.656 -15.689,25.322c-13.065,21.507 -11.333,22.621 -28.282,41c-13.913,15.086 -5.224,18.181 21.458,60.676c25.34,40.358 14.551,52.438 45.225,61.127c22.931,6.496 53.451,48.58 57.133,53.656c4.197,5.788 47.411,65.375 34.063,82.621c-10.626,13.729 -15.861,8.386 -29.3,27.083c-13.016,18.108 -16.827,-0.302 -38.867,-3.192c-15.411,-2.021 -21.612,-32.24 -52.792,-63.164c-9.991,-9.909 -6.761,-13.791 -27.999,-31.567c-24.975,-20.903 -26.749,-47.093 -36.095,-57.304c-0.376,-0.411 -0.707,0.097 -5.146,-4.698c-22.938,-24.777 -41.4,-58.841 -35.003,-25.568c4.484,23.323 7.619,22.783 7.539,46.51c-0.081,24.209 19.477,74.432 15.032,85.998c-11.769,30.625 -48.369,36.342 -52.747,-6.086c-10.216,-98.994 -39.061,-157.352 -41.519,-186.425c-1.092,-12.919 -11.134,-38.784 -11.662,-66.446c-0.134,-7.028 -2.093,-6.664 -17.099,-86.183c-4.477,-23.721 -8.578,-22.82 -8.622,-46.869c-0.009,-4.755 -1.196,-4.364 -7.787,-16.123c2.537,-3.498 5.074,-6.997 7.611,-10.495c7.713,-6.767 5.731,-7.887 9.034,-17.359c1.24,-3.557 2.538,-2.537 3.985,-5.909c0.547,-1.275 -0.678,-2.884 -0.131,-4.159c6.904,-4.68 6.768,-4.427 13.058,-9.998c14.57,2.34 13.221,-3.655 24.372,-7.173c1.038,-0.328 2.151,1.032 3.189,0.704Z" style="fill-opacity:0.99;"/><path d="M1320.022,487.585c27.624,6.606 27.703,6.835 30.067,6.169c12.704,-3.576 12.989,-0.192 26.036,-2.368c30.698,-5.118 30.932,-1.156 33.554,-1.749c20.365,-4.603 26.751,1.765 30.147,-13.998c3.184,-14.779 3.819,-14.344 11.7,-27.454c7.554,-12.566 14.417,-15.724 50.412,5.367c18.864,11.053 -1.355,33.129 20.657,32.472c25.131,-0.75 63.941,-5.399 66.619,-5.578c56.977,-3.807 52.814,-18.084 106.653,-37.327c13.899,-4.967 14.39,-3.191 27.238,4.392c2.121,1.252 17.801,10.506 12.566,28.104c-12.982,43.647 -21.383,39.582 -63.095,54.124c-49.054,17.102 -95.105,4.892 -136.56,1.136c-10.411,-0.943 -18.63,-2.961 -15.778,17.765c6.97,50.646 -2.384,56.405 11.011,93.723c11.718,32.644 4.761,34.469 9.167,42.069c0.957,1.651 6.201,1.655 -1.656,47.187c-3.503,20.298 -9.152,19.37 -6.971,40.038c6.18,58.567 8.555,57.931 8.676,63.019c1.527,64.291 13.095,104.791 13.255,106.384c3.245,32.255 5.256,31.736 10.645,63.55c2.22,13.11 10.645,10.191 10.089,23.047c-0.771,17.841 -2.313,49.014 -25.528,59.21c-20.438,8.976 -20.804,12.924 -42.285,6.006c-9.269,-2.985 -9.04,-31.935 -7.817,-38.635c3.911,-21.411 4.52,-21.027 5.406,-43.118c3.276,-81.634 5.684,-81.533 5.161,-86.539c-5.878,-56.327 -11.795,-55.137 -12.136,-60.025c-0.242,-3.469 -2.847,-40.824 -3.524,-43.328c-3.94,-14.574 -2.167,-14.665 -3.828,-29.73c-3.31,-30.011 -7.105,-29.266 -16.496,-34.552c-19.097,-10.749 -11.547,-30.599 -12.563,-35.499c-2.047,-9.879 0.072,-9.765 0.661,-19.773c1.082,-18.396 2.686,-17.952 4.809,-26.484c7.658,-30.78 4.195,-31.057 1.161,-50.11c-0.463,-2.908 -5.16,-32.395 -5.336,-36.417c-1.113,-25.45 -3.136,-24.929 -10.161,-49.682c-1.901,-6.699 -1.205,-13.391 -19.498,-7.871c-51.999,15.693 -54.627,16.683 -59.274,18.433c-40.674,15.317 -41.809,10.794 -83.288,23.095c-16.37,4.855 -29.707,-20.862 -32.997,-24.214c-10.016,-10.208 -0.495,-16.352 -0.4,-26.3c0.133,-14.046 5.843,-11.563 12.378,-23.981c3.362,1.076 0.884,3.726 4.228,4.797c0.312,0.1 0.33,0.106 3.326,-2.379c0.995,-0.825 1.784,-1.881 2.79,-2.693c11.474,-9.257 27.585,-2.979 40.778,-10.285Z" style="fill-opacity:0.99;"/><path d="M457.064,771.716c2.948,-34.301 31.102,-49.204 32.256,-52.883c12.453,-39.716 -17.458,-60.153 28.307,-97.508c5.142,-4.197 30.188,-19.456 33.301,-20.523c8.434,-2.89 40.132,-7.995 47.439,-3.041c16.318,11.063 19.406,6.18 33.31,20.203c3.297,3.325 12.537,-2.181 19.648,17.178c17.2,46.821 9.094,48.835 23.4,96.451c13.352,44.44 -8.126,70.257 -21.592,99.323c-14.311,30.891 -69.038,21.788 -75.194,20.764c-8.234,-4.855 -10.505,-8.77 -10.793,-4.062c-0,0 4.097,6.516 4.454,7.082c1.774,3.216 2.2,2.891 24.421,38.874c12.22,19.789 22.093,24.872 56.829,68.935c16.172,20.514 18.395,-17.951 34.875,-21.269c26.616,-5.359 26.029,-7.864 53.204,-9.694c16.232,-1.093 11.744,6.862 20.633,22.643c1.387,2.462 4.148,37.389 -4.909,45.944c-7.83,7.396 -19.54,9.311 -24.951,15.063c-13.844,14.716 -39.48,29.966 -47.258,30c-31.772,0.14 -37.735,-8.639 -43.321,-10.759c-13.554,-5.144 -30.415,-55.085 -30.934,-55.591c-19.512,-19.005 -14.978,-22.96 -35.54,-40.97c-11.736,-10.28 -59.923,-110.125 -70.315,-119.175c-7.449,-6.487 -25.218,-2.967 -33.591,-16.272c-1.326,-2.107 -1.563,-1.748 -7.486,-6.02c3.473,-6.846 3.889,-6.737 3.746,-7.383c-2.248,-10.143 -2.678,-9.979 -9.939,-17.311Zm179.392,16.249c-3.94,13.473 -4.117,34.663 -41.126,15.575c-2.901,-1.496 -25.207,-23.228 -27.342,-25.308c-32.996,-32.147 -29.677,-38.601 -30.383,-39.667c-8.644,-13.042 -26.731,-12.937 -15.323,-46.324c1.326,-3.882 12.103,0.838 12.252,0.848c41.958,2.666 50.524,-8.766 59.804,15.391c17.129,44.589 43.714,50.375 42.119,79.485Z" style="fill-opacity:0.99;"/><path d="M627.838,399.233c26.852,-12.186 28.321,-7.641 32.442,-2.734c6.459,7.691 7.351,6.303 16.211,10.592c-0.493,0.422 -6.165,5.271 -6.165,5.271c-0.373,1.086 2.406,1.694 2.034,2.78c3.033,7.474 3.674,6.909 10.579,10.925c4.281,8.257 8.495,7.369 5.935,16.512c-1.058,3.779 -6.406,5.842 -7.087,19.708c-0.937,19.078 -4.385,18.287 -4.425,19.919c-0.29,11.643 22.029,88.307 22.898,90.193c8.834,19.185 5.829,20.162 14.208,39.476c30.385,70.034 27.835,111.727 47.977,145.494c25.244,42.319 59.233,161.071 61.612,167.24c10.823,28.069 13.836,26.937 16.132,26.075c2.638,-0.99 3.86,-39.289 3.97,-42.719c1.201,-37.602 14.504,-56.581 5.972,-93.001c-4.94,-21.088 2.488,-21.576 -3.538,-83.197c-3.981,-40.714 9.772,-113.577 1.696,-133.5c-8.177,-20.175 -12.149,-18.364 -17.137,-39.647c-7.617,-32.5 -24.621,-90.974 -24.605,-139.66c0.01,-31.536 23.639,-53.005 37.755,-47.253c66.037,26.911 46.336,71.92 49.79,90.523c6.051,32.59 -10.972,91.866 -11.306,92.404c-5.764,9.294 -2.95,16.442 -5.624,33.997c-17.044,111.896 -3.362,112.9 -9.228,153.115c-4.532,31.073 -5.335,30.753 -5.72,33.439c-3.859,26.936 0.549,42.13 0.356,59.574c-0.691,62.69 19.157,80.659 24.981,113.078c0.568,3.16 6.071,33.793 5.152,39.805c-3.466,22.684 8.556,49.203 0.096,69.46c-4.049,9.694 -9.604,5.022 -14.233,14.437c-1.232,2.506 -12.829,26.092 -33.831,8.606c-19.013,-15.831 -22.081,-14.208 -22.832,-22.571c-1.099,-12.234 -6.602,-16.271 -6.682,-23.272c-0.723,-63.257 -33.02,-111.323 -35.48,-136.247c-1.896,-19.215 -9.303,-25.442 -10.686,-36.9c-4.576,-37.932 -7.718,-36.917 -16.942,-63.37c-9.644,-27.657 -34.042,-63.691 -40.581,-102.82c-2.164,-12.95 -28.338,-64.636 -48.883,-90.869c-12.31,-15.719 -34.489,-74.722 -65.58,-111.335c-13.373,-15.748 -3.692,-20.502 -15.527,-37.312c-12.798,-18.177 4.237,-23.745 15.888,-36.785c1.383,-0.456 16.176,-5.33 17.04,-6.396c1.514,-1.865 1.711,-4.7 3.506,-6.297c1.759,-1.565 4.603,-1.321 6.547,-2.649c1.449,-0.99 1.865,-3.1 3.314,-4.09Z" style="fill-opacity:0.98;"/><path d="M913.82,664.615c15.653,-5.044 20.61,4.241 29.153,-9.986c29.501,-49.126 -22.791,-73.045 17.68,-115.7c21.16,-22.302 92.077,-14.578 107.372,56.042c2.077,9.589 5.317,49.399 20.302,99.681c3.819,12.814 1.642,62.148 -15.313,79.747c-3.425,3.555 -10.544,18.701 -46.022,19.863c-30.43,0.997 -68.596,-38.937 -72.965,-32.515c-1.705,2.507 8.78,42.764 9.736,46.437c10.503,40.326 25.405,56.013 61.216,105.494c2.878,3.976 3.191,3.591 49.702,35.97c26.251,18.275 35.093,4.762 36.704,2.3c15.857,-24.235 57.975,48.99 -0.89,66.898c-35.287,10.735 -73.736,-15.677 -79.106,-19.366c-25.714,-17.664 -48.484,-27.912 -69.702,-65.726c-41.273,-73.557 -39.292,-75.055 -50.607,-158.905c-3.971,-29.426 9.641,-35.019 -12.639,-54.497c-1.313,-1.148 -4.895,-4.279 -11.573,-18.467c0.592,-0.537 7.397,-6.707 7.397,-6.707c0.487,-0.438 1.286,-0.388 1.792,-0.803c0.645,-0.529 5.365,-4.4 4.763,-9.268c-0.222,-1.798 -3.87,-1.779 -4.092,-3.577c7.488,-9.587 11.22,-5.928 17.09,-16.917Zm126.614,98.87c-2.829,-0.805 -13.724,-3.907 -28.58,-23.122c-43.358,-56.08 -54.741,-54.394 -47.356,-68.258c20.52,-38.52 18.346,-39.385 20.458,-42.514c1.135,-1.681 1.626,-1.387 25.358,0.148c12.5,0.809 7.701,6.497 10.985,18.519c17.755,65.009 26.76,62.249 28.322,80.144c2.469,28.286 3.568,32.304 -9.187,35.082Z" style="fill-opacity:0.99;"/><path d="M183.495,1074.535c0.674,-3.164 3.309,-22.243 8.324,-30.393c7.749,-12.592 34.213,-8.175 37.029,-6.694c14.28,7.515 13.182,8.939 19.509,23.676c9.425,21.955 29.482,27.685 12.343,38.265c-7.255,4.479 -15.198,22.74 -32.047,27.913c-21.328,6.548 -31.228,-11.034 -32.613,-13.494c-2.571,-4.566 -9.462,-7.476 -10.808,-9.396c-5.829,-8.317 -2.748,-9.019 -1.736,-29.878Z" style="fill-opacity:0.97;"/><path d="M3468.14,1005.399c17.065,4.284 15.282,8.179 17.925,25.543c2.857,18.766 -48.954,22.938 -43.288,-13.042c1.013,-6.434 6.167,-12.204 9.005,-13.459c6.529,-2.886 16.126,0.906 16.358,0.958Z" style="fill-opacity:0.98;"/><path d="M142.058,382.126c8.028,-10.633 10.967,-5.084 23.698,-9.078c15.953,-5.006 22.75,12.435 30.43,25.331c-2.741,-0.425 -2.442,1.07 -4.963,0.679c-0.24,-0.037 -0.668,-0.104 -2.427,-1.826c-12.249,-11.99 -25.858,-7.026 -46.738,-15.106Z" style="fill-opacity:0.53;"/><path d="M584.166,1080.893c0.558,2.708 5.903,28.636 -9.571,33.206c-14.965,4.419 -14.439,6.943 -29.913,6.104c9.694,-7.345 9.071,-7.748 9.992,-8.221c9.885,-5.087 6.948,-8.396 16.367,-14.62c9.066,-5.991 3.579,-11.198 13.124,-16.468Z" style="fill-opacity:0.79;"/><path d="M1320.022,487.585c-13.193,7.306 -29.304,1.029 -40.778,10.285c-1.006,0.812 -1.795,1.868 -2.79,2.693c-2.996,2.485 -3.015,2.479 -3.326,2.379c-3.344,-1.07 -0.866,-3.721 -4.228,-4.797c12.124,-13.88 25.321,-17.811 27.758,-17.247c12.318,2.852 13.79,-1.448 23.364,6.686Z" style="fill-opacity:0.64;"/><path d="M3374.231,321.976c10.642,-12.32 19.795,-8.744 18.112,7.269c-1.839,17.498 -26.261,14.516 -18.112,-7.269Z" style="fill-opacity:0.94;"/><path d="M3305.255,1034.444c7.742,1.956 8.178,2.137 10.772,9.678c4.906,14.261 10.669,13.188 7.933,28.042c-15.289,-3.415 -21.854,-26.458 -18.705,-37.72Z" style="fill-opacity:0.62;"/><path d="M627.838,399.233c-1.449,0.99 -1.865,3.1 -3.314,4.09c-1.944,1.328 -4.788,1.084 -6.547,2.649c-1.795,1.597 -1.992,4.432 -3.506,6.297c-0.865,1.066 -15.657,5.94 -17.04,6.396c0.511,-5.976 2.486,-35.609 30.408,-19.431Z" style="fill-opacity:0.6;"/><path d="M913.82,664.615c-5.871,10.989 -9.603,7.329 -17.09,16.917c-6.304,5.475 -5.496,6.016 -12.621,10.242c-0.018,-16.06 1.335,-24.239 29.711,-27.158Z" style="fill-opacity:0.55;"/><path d="M132.024,388.385c-7.126,7.642 -7.267,9.28 -7.354,10.288c-0.758,8.784 -7.953,11.828 -9.505,13.194c-1.118,0.985 -1.39,3.586 -2.872,3.427c-2.17,-0.233 -2.794,-4.035 -4.964,-4.268c3.975,-18.451 5.996,-19.362 24.694,-22.642Z" style="fill-opacity:0.55;"/><path d="M2293.741,517.967c-0.547,1.275 0.678,2.884 0.131,4.159c-1.447,3.372 -2.745,2.352 -3.985,5.909c-3.304,9.472 -1.322,10.593 -9.034,17.359c-1.384,-0.924 -2.897,-1.646 -4.281,-2.57c-1.056,-0.705 -3.64,-3.735 -3.646,-3.967c-0.056,-2.194 1.814,-1.222 1.897,-3.426c0.098,-2.582 -1.695,-1.921 -1.591,-4.682c9.82,-7.591 8.619,-9.344 20.509,-12.781Z" style="fill-opacity:0.62;"/><path d="M3341.261,1088.241c1.75,-0.568 2.322,-3.159 4.072,-3.727c1.096,-0.356 2.034,1.558 3.172,1.376c0.841,-0.135 4.902,-6.847 13.365,-1.324c1.222,0.798 1.993,2.425 3.42,2.735c1.16,0.252 2.388,-1.994 3.326,-1.268c1.854,1.434 1.303,4.848 3.157,6.282c-17.206,1.443 -19.799,7.94 -30.513,-4.074Z" style="fill-opacity:0.65;"/><path d="M191.944,1157.47c0.384,-7.592 0.575,-11.406 13.152,-9.091c8.794,1.619 -0.054,31.344 -13.152,9.091Z" style="fill-opacity:0.97;"/><path d="M1752.042,803.074c1.592,-0.408 16.429,-4.212 20.519,1.056c2.89,3.722 2.483,3.914 2.808,4.147c1.515,1.087 1.744,-0.882 3.363,0.28c-14.439,7.953 -17.798,8.392 -26.69,-5.484Z" style="fill-opacity:0.56;"/><path d="M2091.351,1146.467c0.522,-0.323 6.53,-4.039 6.53,-4.039c4.645,0.752 4.614,3.664 13.265,0.634c2.451,-0.859 3.269,-0.318 3.504,-0.163c2.974,1.964 1.332,3.356 4.351,5.351c-11.505,11.553 -13.962,6.922 -27.65,-1.782Z" style="fill-opacity:0.57;"/><path d="M2273.232,530.749c-0.104,2.761 1.688,2.101 1.591,4.682c-0.083,2.204 -1.953,1.232 -1.897,3.426c0.006,0.232 2.59,3.262 3.646,3.967c1.384,0.924 2.897,1.646 4.281,2.57c-2.537,3.498 -5.074,6.997 -7.611,10.495c-14.671,-14.72 -6.893,-19.334 -0.009,-25.141Z" style="fill-opacity:0.55;"/><path d="M457.064,771.716c7.261,7.332 7.692,7.168 9.939,17.311c0.143,0.647 -0.273,0.537 -3.746,7.383c-7.07,-2.917 -12.216,-3.293 -6.193,-24.694Z" style="fill-opacity:0.51;"/><path d="M2334.36,501.501c-1.038,0.328 -2.151,-1.032 -3.189,-0.704c-11.151,3.518 -9.802,9.512 -24.372,7.173c5.125,-14.49 13.63,-12.646 27.561,-6.468Z" style="fill-opacity:0.51;"/><path d="M896.729,681.532c0.222,1.798 3.87,1.779 4.092,3.577c0.601,4.868 -4.119,8.739 -4.763,9.268c-0.506,0.415 -1.305,0.366 -1.792,0.803c0,0 -6.805,6.17 -7.397,6.707c-2.121,-4.865 -2.344,-4.57 -2.76,-10.113c7.125,-4.226 6.317,-4.766 12.621,-10.242Z" style="fill-opacity:0.69;"/><path d="M1149.644,934.282c4.41,10.172 2.331,10.449 -2.576,20.127c-3.598,-5.108 -12.644,-14.432 2.576,-20.127Z" style="fill-opacity:0.55;"/><path d="M1675.698,621.846c1.946,-0.184 3.891,-0.368 5.837,-0.551c-2.285,8.373 1.805,24.244 -5.348,19.415c-7.383,-4.984 -1.161,-17.512 -0.489,-18.864Z" style="fill-opacity:0.85;"/><path d="M676.492,407.091c8.015,7.079 6.554,8.148 6.448,18.977c-6.905,-4.016 -7.546,-3.451 -10.579,-10.925c0.373,-1.086 -2.406,-1.694 -2.034,-2.78c0,-0 5.672,-4.85 6.165,-5.271Z" style="fill-opacity:0.53;"/><path d="M2381.643,664.832l5.027,2.698c-7.648,12.869 -7.413,14.041 -9.147,13.338c-6.13,-2.486 2.983,-13.194 4.12,-16.036Z" style="fill-opacity:0.77;"/><path d="M3492.051,1059.596c3.131,4.525 5.218,7.105 -0.423,7.693c-0.613,0.064 -14.075,-2.435 0.423,-7.693Z" style="fill-opacity:0.64;"/><path d="M1297.369,318.345c1.06,1.163 2.121,2.326 3.181,3.489c-6.822,6.226 -6.647,6.381 -7.367,6.724c-0.798,0.379 -7.487,-2.611 4.186,-10.213Z" style="fill-opacity:0.72;"/><path d="M577.939,851.679c-2.113,1.007 -4.226,2.013 -6.339,3.02c-0.356,-0.567 -4.454,-7.082 -4.454,-7.082c0.288,-4.707 2.558,-0.792 10.793,4.062Z" style="fill-opacity:0.57;"/><path d="M634.966,409.036c-2.521,2.651 -1.023,6.751 -3.851,4.049c-0.235,-0.224 -2.158,-2.062 -0.269,-4.049c0.946,-0.995 3.173,0.995 4.12,0Z" style="fill-opacity:0.89;"/></g></svg>